# xmcd
#
# Track frame offsets:
#	183
#	19973
#	37543
#	55318
#	78445
#	94420
#	108730
#	127375
#	148730
#	165983
#	183815
#	199300
#	216258
#	231228
#	248655
#
# Disc length: 3535
#
# Revision: 1
# Processed by: cddbd v1.5.1PL0 Copyright (c) Steve Scherf et al.
# Submitted via: EasyCDDAExtractor 5.0.5.1
# Normalized: r0:DSETVAR1
#
DISCID=d50dcd0f
DTITLE=Various Artist - Very Necessary
DYEAR=1992
DGENRE=Hip-Hop
TTITLE0=Salt 'N' Pepa - Groove me
TTITLE1=Salt'n'Pepa - No one does it better
TTITLE2=Salt'n'Pepa - Somebody's gettin' on my nerves
TTITLE3=Salt'n'Pepa - Whatta man
TTITLE4=Salt'n'Pepa - None of your business
TTITLE5=Salt'n'Pepa - Step
TTITLE6=Salt'n'Pepa - Shoop
TTITLE7=Salt'n'Pepa - Heaven or hell
TTITLE8=Salt'n'Pepa - Big shot
TTITLE9=Salt'n'Pepa - Sexy noises turn me on
TTITLE10=Salt'n'Pepa - Somma time man
TTITLE11=Salt'n'Pepa - Break of dawn
TTITLE12=Salt'n'Pepa - Psa we talk
TTITLE13=Salt 'N' Pepa - Shoop (Danny d's radio mix)
TTITLE14=Salt'N'Pepa - Start me up
EXTD=YEAR: 1992 ID3G: 7
EXTT0=
EXTT1=
EXTT2=
EXTT3=
EXTT4=
EXTT5=
EXTT6=
EXTT7=
EXTT8=
EXTT9=
EXTT10=
EXTT11=
EXTT12=
EXTT13=
EXTT14=
PLAYORDER=
